<svg width="10" height="18" viewBox="0 0 10 18" fill="none" xmlns="http://www.w3.org/2000/svg">
<path d="M9.20816 0.0037452L6.96801 0C4.45127 0 2.82483 1.73871 2.82483 4.42982V6.47227H0.572458C0.377825 6.47227 0.220215 6.63668 0.220215 6.83949V9.79876C0.220215 10.0016 0.378006 10.1658 0.572458 10.1658H2.82483V17.633C2.82483 17.8358 2.98245 18 3.17708 18H6.11579C6.31042 18 6.46803 17.8356 6.46803 17.633V10.1658H9.10159C9.29622 10.1658 9.45383 10.0016 9.45383 9.79876L9.45491 6.83949C9.45491 6.74211 9.41771 6.64886 9.35175 6.57994C9.2858 6.51103 9.19594 6.47227 9.10248 6.47227H6.46803V4.74086C6.46803 3.90868 6.65835 3.48622 7.69873 3.48622L9.2078 3.48566C9.40225 3.48566 9.55986 3.32124 9.55986 3.11863V0.370775C9.55986 0.168347 9.40243 0.00411972 9.20816 0.0037452Z" fill="#62717C"/>
</svg>
