<svg width="18" height="15" viewBox="0 0 18 15" fill="none" xmlns="http://www.w3.org/2000/svg">
<path d="M17.8202 1.73609C17.1406 2.04068 16.4608 2.2309 15.7816 2.3073C16.5488 1.82762 17.0678 1.14995 17.3382 0.274347C16.6363 0.708269 15.8874 1.00514 15.091 1.16511C14.3894 0.388478 13.5273 0 12.504 0C11.525 0 10.6902 0.359715 9.9993 1.0793C9.30888 1.79885 8.96361 2.6687 8.96361 3.68896C8.96361 3.96302 8.9928 4.24485 9.0513 4.53416C7.60438 4.45803 6.24706 4.07924 4.97913 3.39777C3.71126 2.71622 2.63525 1.80822 1.75108 0.673746C1.42954 1.24468 1.26872 1.86534 1.26872 2.53537C1.26872 3.16735 1.41119 3.75372 1.69633 4.29434C1.98128 4.83487 2.36501 5.27263 2.84732 5.6077C2.27724 5.58482 1.74382 5.42869 1.24699 5.13934V5.18502C1.24699 6.07595 1.51554 6.85815 2.05257 7.53221C2.58968 8.2062 3.26749 8.63044 4.08586 8.80565C3.77891 8.8893 3.46828 8.93119 3.15411 8.93119C2.94948 8.93119 2.72658 8.91218 2.48548 8.87438C2.71199 9.61281 3.12855 10.2198 3.73499 10.696C4.34155 11.1718 5.02846 11.4171 5.79577 11.4327C4.50971 12.4833 3.04458 13.0086 1.4004 13.0086C1.08613 13.0086 0.801218 12.9937 0.54541 12.9631C2.18963 14.067 4.00186 14.619 5.9822 14.619C7.23908 14.619 8.41926 14.4117 9.52232 13.9966C10.626 13.5818 11.5685 13.0259 12.3505 12.329C13.1323 11.6324 13.8065 10.831 14.3728 9.92492C14.939 9.0188 15.3609 8.07282 15.6389 7.08681C15.9164 6.10059 16.0553 5.11286 16.0553 4.12284C16.0553 3.90962 16.0516 3.7498 16.0442 3.64315C16.7387 3.11802 17.3305 2.48212 17.8202 1.73609Z" fill="#62717C"/>
</svg>
