<svg width="20" height="12" viewBox="0 0 20 12" fill="none" xmlns="http://www.w3.org/2000/svg">
<path d="M19.8982 10.3053C19.8749 10.2531 19.8533 10.2098 19.8331 10.1751C19.5001 9.55017 18.8637 8.78308 17.9243 7.87364L17.9045 7.85281L17.8946 7.8426L17.8845 7.83213H17.8744C17.448 7.40865 17.1781 7.12391 17.065 6.97813C16.8582 6.70043 16.8118 6.41933 16.9249 6.13452C17.0047 5.91933 17.3048 5.46488 17.8243 4.77056C18.0976 4.40258 18.314 4.10767 18.4739 3.88548C19.6266 2.28871 20.1263 1.26835 19.9729 0.82401L19.9134 0.720173C19.8734 0.657659 19.7701 0.60047 19.6037 0.548314C19.437 0.496268 19.2239 0.487661 18.964 0.522346L16.0859 0.543062C16.0393 0.525847 15.9727 0.527452 15.886 0.548314C15.7993 0.569176 15.756 0.579644 15.756 0.579644L15.7059 0.605722L15.6661 0.637052C15.6328 0.657768 15.5962 0.694205 15.5561 0.746287C15.5163 0.798188 15.4831 0.859096 15.4564 0.928504C15.1431 1.7685 14.7868 2.54949 14.387 3.27143C14.1405 3.70191 13.9141 4.07499 13.7074 4.39088C13.5008 4.70666 13.3276 4.93931 13.1878 5.08845C13.0477 5.23773 12.9214 5.35733 12.8079 5.44767C12.6947 5.53805 12.6082 5.57623 12.5482 5.56226C12.4882 5.5483 12.4317 5.53444 12.3782 5.52058C12.285 5.45806 12.21 5.37305 12.1535 5.26545C12.0967 5.15786 12.0585 5.02244 12.0385 4.85929C12.0186 4.69604 12.0068 4.55562 12.0035 4.43756C12.0003 4.31965 12.0018 4.15286 12.0086 3.93767C12.0155 3.72237 12.0186 3.5767 12.0186 3.50033C12.0186 3.23649 12.0235 2.95014 12.0334 2.64122C12.0435 2.33229 12.0517 2.08753 12.0585 1.90721C12.0653 1.7267 12.0685 1.53574 12.0685 1.33441C12.0685 1.13308 12.0567 0.975188 12.0334 0.860592C12.0105 0.746141 11.9753 0.635046 11.9288 0.527342C11.8821 0.419749 11.8137 0.336518 11.7239 0.277433C11.634 0.21842 11.5222 0.171589 11.3892 0.136795C11.036 0.0535279 10.5863 0.00848438 10.0399 0.00148165C8.80072 -0.0123779 8.00451 0.0709981 7.65139 0.251501C7.51149 0.327765 7.38488 0.431967 7.27168 0.563778C7.15173 0.716562 7.135 0.799938 7.2216 0.813652C7.6214 0.876057 7.90443 1.02534 8.07102 1.26135L8.13105 1.38642C8.17774 1.47665 8.22436 1.6364 8.27102 1.86545C8.31762 2.09449 8.34768 2.34787 8.36091 2.62542C8.39416 3.13228 8.39416 3.56616 8.36091 3.92709C8.32755 4.28817 8.29605 4.56926 8.26598 4.77059C8.23592 4.97192 8.19097 5.13506 8.13105 5.25998C8.07102 5.38494 8.03107 5.46131 8.01105 5.48903C7.99106 5.51675 7.9744 5.53422 7.96118 5.54107C7.87457 5.57565 7.78451 5.59327 7.6913 5.59327C7.59795 5.59327 7.48475 5.54461 7.35152 5.44738C7.21834 5.35014 7.08012 5.21658 6.93684 5.04647C6.79357 4.87633 6.63201 4.63856 6.45205 4.33314C6.27224 4.02772 6.08567 3.66675 5.89245 3.25024L5.73259 2.94817C5.63266 2.75384 5.49615 2.47089 5.32292 2.09956C5.14959 1.72809 4.99638 1.36876 4.86319 1.02165C4.80995 0.875874 4.72996 0.764888 4.62339 0.688515L4.57337 0.657185C4.54011 0.629466 4.48673 0.600032 4.41351 0.568666C4.34018 0.537336 4.26366 0.514869 4.18364 0.501045L1.44538 0.521762C1.16557 0.521762 0.97571 0.587814 0.87574 0.719735L0.835732 0.782139C0.815745 0.816898 0.805664 0.872409 0.805664 0.948819C0.805664 1.02519 0.825651 1.11893 0.865659 1.22991C1.26539 2.20884 1.7001 3.15293 2.16977 4.06233C2.63944 4.97174 3.04758 5.70429 3.39393 6.25933C3.74036 6.81477 4.09347 7.33899 4.45327 7.83173C4.81307 8.32466 5.05123 8.64055 5.16776 8.77932C5.28442 8.91836 5.37605 9.0223 5.44266 9.09171L5.69255 9.34158C5.85245 9.50823 6.08725 9.7078 6.39706 9.94032C6.70694 10.173 7.05001 10.402 7.42644 10.6278C7.80292 10.8533 8.24092 11.0372 8.74066 11.1795C9.24033 11.3219 9.72666 11.3791 10.1997 11.3515H11.3491C11.5821 11.3305 11.7587 11.2542 11.8787 11.1224L11.9185 11.0702C11.9452 11.0287 11.9703 10.9644 11.9933 10.8777C12.0167 10.791 12.0283 10.6954 12.0283 10.5914C12.0215 10.2929 12.0433 10.0239 12.0932 9.78447C12.143 9.54506 12.1997 9.36456 12.2633 9.243C12.3267 9.12155 12.3983 9.01906 12.4781 8.93597C12.5579 8.85271 12.6148 8.80227 12.6482 8.7849C12.6814 8.76743 12.7079 8.75558 12.7279 8.74847C12.8878 8.69296 13.076 8.74672 13.2927 8.91C13.5093 9.07315 13.7124 9.27458 13.9024 9.51399C14.0923 9.75361 14.3204 10.0225 14.5868 10.3209C14.8535 10.6195 15.0867 10.8414 15.2864 10.9874L15.4862 11.1124C15.6197 11.1957 15.7929 11.2721 16.0062 11.3415C16.219 11.4109 16.4055 11.4283 16.5656 11.3936L19.1239 11.352C19.3769 11.352 19.5738 11.3083 19.7134 11.2217C19.8534 11.1349 19.9366 11.0393 19.9633 10.9354C19.9901 10.8313 19.9915 10.7132 19.9684 10.5811C19.9447 10.4494 19.9214 10.3573 19.8982 10.3053Z" fill="#62717C"/>
</svg>
