<svg width="19" height="14" viewBox="0 0 19 14" fill="none" xmlns="http://www.w3.org/2000/svg">
<path d="M17.5238 1.14781C16.8656 0.33255 15.6503 0 13.3295 0H4.90486C2.53089 0 1.29506 0.354001 0.639326 1.22196C0 2.06823 0 3.31514 0 5.04089V8.33017C0 11.6735 0.758556 13.371 4.90486 13.371H13.3295C15.3421 13.371 16.4574 13.0776 17.1789 12.3581C17.9189 11.6203 18.2345 10.4157 18.2345 8.33017V5.04089C18.2345 3.22094 18.1851 1.96668 17.5238 1.14781ZM11.7067 7.13965L7.88102 9.22289C7.7955 9.26947 7.70197 9.29258 7.60856 9.29258C7.5028 9.29258 7.39728 9.26291 7.30381 9.20395C7.12782 9.09284 7.02035 8.89408 7.02035 8.67969V4.52656C7.02035 4.31254 7.12752 4.11397 7.30317 4.00279C7.47886 3.89162 7.69738 3.88402 7.87967 3.98269L11.7053 6.05251C11.8999 6.15781 12.0221 6.36717 12.0224 6.59559C12.0227 6.8242 11.901 7.03386 11.7067 7.13965Z" fill="#62717C"/>
</svg>
